<svg version="1.1" id="Layer_1" xmlns="http://www.w3.org/2000/svg" xmlns:xlink="http://www.w3.org/1999/xlink" x="0px" y="0px"
	 width="100%" viewBox="0 0 1438 2000" enable-background="new 0 0 1438 2000" xml:space="preserve">
<path fill="#ffffff00" opacity="1.000000" stroke="none" 
	d="
M715.000000,2001.000000 
	C477.044281,2001.000000 239.088577,2001.000000 1.000000,2001.000000 
	C1.000000,1509.635742 1.000000,1018.271484 1.319206,526.681274 
	C2.085352,527.855103 2.831595,529.233276 2.934054,530.657776 
	C4.335645,550.143921 5.555801,569.643372 7.011376,589.125305 
	C8.231637,605.457703 9.417906,621.801270 11.134419,638.085632 
	C13.125208,656.972107 15.647246,675.803101 17.997320,694.650879 
	C19.979559,710.548584 21.763792,726.478027 24.139256,742.317871 
	C27.909395,767.457642 31.892759,792.569763 36.173885,817.627319 
	C39.925625,839.586243 44.034702,861.488464 48.314152,883.351501 
	C52.022888,902.298950 55.999447,921.199219 60.206734,940.042419 
	C65.387062,963.243652 70.731438,986.412415 76.373672,1009.505066 
	C81.465126,1030.343506 86.846443,1051.116821 92.491531,1071.812134 
	C96.662750,1087.104004 101.277031,1102.282715 106.027779,1117.406982 
	C112.859459,1139.156006 119.788696,1160.879028 127.069046,1182.480957 
	C132.340088,1198.120850 138.081451,1213.609253 143.915573,1229.050781 
	C151.153809,1248.208740 158.512177,1267.326172 166.182816,1286.314087 
	C171.931198,1300.543579 178.170914,1314.577637 184.347321,1328.630249 
	C190.068024,1341.645874 195.732025,1354.697266 201.894806,1367.505005 
	C210.555115,1385.503174 219.537354,1403.349487 228.598648,1421.150513 
	C236.700928,1437.067383 244.677216,1453.071777 253.462402,1468.611816 
	C266.488312,1491.653320 279.971985,1514.443970 293.654724,1537.103516 
	C304.080139,1554.368896 314.753204,1571.508789 325.976196,1588.262207 
	C339.315948,1608.175537 353.208771,1627.725220 367.154633,1647.223267 
	C376.961700,1660.934692 386.924225,1674.561646 397.411469,1687.754028 
	C413.773407,1708.336548 430.379211,1728.738647 447.370117,1748.803467 
	C462.138885,1766.244141 477.445465,1783.237549 492.785461,1800.183105 
	C501.544708,1809.859131 510.802338,1819.086914 519.913574,1828.440552 
	C532.644287,1841.510132 545.219299,1854.743408 558.285522,1867.470703 
	C570.881653,1879.740234 583.983459,1891.492432 596.929321,1903.400024 
	C603.516968,1909.459473 610.135071,1915.495605 616.942932,1921.303589 
	C629.022949,1931.609375 641.184021,1941.823364 653.447937,1951.909546 
	C666.600281,1962.726440 679.871033,1973.400391 693.167358,1984.040283 
	C700.361694,1989.797363 707.717163,1995.353394 715.000000,2001.000000 
z"/>
<path fill="#ffffff00" opacity="1.000000" stroke="none" 
	d="
M1439.000000,527.000000 
	C1439.000000,1018.241821 1439.000000,1509.483643 1439.000000,2001.000000 
	C1201.635864,2001.000000 964.271545,2001.000000 726.634766,2000.708740 
	C728.350830,1999.234375 730.497864,1998.253296 732.303162,1996.836670 
	C750.252319,1982.752197 768.361572,1968.859619 785.993591,1954.386597 
	C804.153381,1939.480347 822.000854,1924.180420 839.666443,1908.689453 
	C852.750732,1897.215820 865.653259,1885.494019 878.051758,1873.288452 
	C898.314941,1853.340820 918.340332,1833.137695 938.011230,1812.606567 
	C952.683228,1797.292725 966.761353,1781.401611 980.870911,1765.559937 
	C991.549866,1753.569946 1002.188721,1741.516357 1012.259827,1729.019165 
	C1028.022705,1709.459351 1043.909302,1689.948486 1058.627563,1669.609253 
	C1081.874756,1637.484131 1104.616943,1604.972412 1126.751953,1572.071899 
	C1139.752686,1552.748291 1151.461426,1532.529053 1163.214844,1512.399536 
	C1176.723267,1489.264160 1190.034790,1465.994629 1202.691650,1442.386597 
	C1213.545288,1422.142456 1223.617188,1401.464478 1233.550293,1380.745972 
	C1242.702515,1361.656616 1251.558594,1342.407837 1259.914185,1322.958252 
	C1270.548828,1298.203491 1280.940796,1273.328125 1290.697876,1248.217285 
	C1298.523071,1228.078369 1305.579468,1207.621338 1312.373535,1187.105713 
	C1320.726440,1161.882690 1328.717651,1136.531616 1336.362061,1111.084717 
	C1342.107666,1091.958862 1347.331543,1072.664429 1352.300293,1053.319946 
	C1359.197144,1026.468750 1365.911133,999.563965 1372.192383,972.563232 
	C1377.911255,947.979858 1383.148682,923.278931 1388.223145,898.552917 
	C1392.468872,877.864685 1396.354614,857.097595 1400.068604,836.306335 
	C1404.420898,811.942749 1408.502563,787.529541 1412.530151,763.109680 
	C1414.866333,748.946167 1416.976562,734.742859 1418.985718,720.528748 
	C1421.018066,706.150757 1422.911011,691.750793 1424.659668,677.335571 
	C1426.249268,664.231384 1427.632812,651.100952 1428.977661,637.968811 
	C1430.140259,626.615967 1431.128296,615.245178 1432.180420,603.881104 
	C1433.460571,590.054199 1434.884644,576.238037 1435.941162,562.393921 
	C1436.597290,553.795715 1436.547363,545.145142 1437.104248,536.536804 
	C1437.311646,533.330383 1438.343872,530.177368 1439.000000,527.000000 
z"/>
<path fill="#ffffff00" opacity="1.000000" stroke="none" 
	d="
M0.999998,439.000000 
	C1.000000,293.053436 1.000000,147.106888 1.000000,1.000000 
	C239.692474,1.000000 478.385010,1.000000 717.324646,1.295756 
	C706.571716,5.649497 695.396240,9.291479 684.604675,13.843711 
	C652.615356,27.337774 620.590759,40.776276 588.937012,55.029354 
	C561.669495,67.307419 534.629883,80.157417 507.967468,93.695854 
	C477.857544,108.984825 448.126953,125.043762 418.524384,141.301331 
	C396.629700,153.325775 375.034668,165.922119 353.616577,178.780762 
	C331.789795,191.884766 310.188812,205.381714 288.772644,219.147903 
	C267.503540,232.819580 246.307922,246.640747 225.591171,261.127258 
	C202.434601,277.319855 179.700607,294.130920 157.070023,311.056976 
	C139.602539,324.121399 122.390114,337.545227 105.413322,351.241852 
	C90.093269,363.601837 75.223770,376.521576 60.198410,389.245026 
	C46.814484,400.578552 33.522285,412.020538 20.123541,423.336426 
	C13.829076,428.652405 7.379348,433.784515 0.999998,439.000000 
z"/>
<path fill="#ffffff00" opacity="1.000000" stroke="none" 
	d="
M725.000000,1.000008 
	C962.912720,1.000000 1200.825439,1.000000 1439.000000,1.000000 
	C1439.000000,146.692383 1439.000000,292.384949 1438.691895,438.405701 
	C1424.672852,426.731781 1410.937744,414.757263 1397.259644,402.718018 
	C1387.927979,394.504608 1378.892578,385.940674 1369.341553,377.993774 
	C1351.798706,363.397186 1334.168823,348.890808 1316.213135,334.808624 
	C1296.439209,319.300537 1276.350220,304.188110 1256.215820,289.147858 
	C1245.495361,281.139648 1234.467041,273.534546 1223.439575,265.948181 
	C1203.010254,251.893600 1182.663696,237.705643 1161.934937,224.103165 
	C1144.095581,212.396774 1125.939453,201.148590 1107.624268,190.197968 
	C1079.358643,173.297974 1051.016479,156.509460 1022.365479,140.276123 
	C1001.503174,128.455811 980.188904,117.417107 958.895691,106.377975 
	C936.668030,94.854401 914.441223,83.289627 891.819458,72.575996 
	C864.287903,59.537113 836.505676,46.993935 808.528748,34.939812 
	C785.601074,25.061218 762.224548,16.225233 739.058899,6.897453 
	C734.345276,4.999488 729.684937,2.969264 725.000000,1.000008 
z"/>
<path fill="#292524" opacity="1.000000" stroke="none" 
	d="
M724.562500,1.000008 
	C729.684937,2.969264 734.345276,4.999488 739.058899,6.897453 
	C762.224548,16.225233 785.601074,25.061218 808.528748,34.939812 
	C836.505676,46.993935 864.287903,59.537113 891.819458,72.575996 
	C914.441223,83.289627 936.668030,94.854401 958.895691,106.377975 
	C980.188904,117.417107 1001.503174,128.455811 1022.365479,140.276123 
	C1051.016479,156.509460 1079.358643,173.297974 1107.624268,190.197968 
	C1125.939453,201.148590 1144.095581,212.396774 1161.934937,224.103165 
	C1182.663696,237.705643 1203.010254,251.893600 1223.439575,265.948181 
	C1234.467041,273.534546 1245.495361,281.139648 1256.215820,289.147858 
	C1276.350220,304.188110 1296.439209,319.300537 1316.213135,334.808624 
	C1334.168823,348.890808 1351.798706,363.397186 1369.341553,377.993774 
	C1378.892578,385.940674 1387.927979,394.504608 1397.259644,402.718018 
	C1410.937744,414.757263 1424.672852,426.731781 1438.691895,438.866943 
	C1439.000000,468.020905 1439.000000,497.041779 1439.000000,526.531372 
	C1438.343872,530.177368 1437.311646,533.330383 1437.104248,536.536804 
	C1436.547363,545.145142 1436.597290,553.795715 1435.941162,562.393921 
	C1434.884644,576.238037 1433.460571,590.054199 1432.180420,603.881104 
	C1431.128296,615.245178 1430.140259,626.615967 1428.977661,637.968811 
	C1427.632812,651.100952 1426.249268,664.231384 1424.659668,677.335571 
	C1422.911011,691.750793 1421.018066,706.150757 1418.985718,720.528748 
	C1416.976562,734.742859 1414.866333,748.946167 1412.530151,763.109680 
	C1408.502563,787.529541 1404.420898,811.942749 1400.068604,836.306335 
	C1396.354614,857.097595 1392.468872,877.864685 1388.223145,898.552917 
	C1383.148682,923.278931 1377.911255,947.979858 1372.192383,972.563232 
	C1365.911133,999.563965 1359.197144,1026.468750 1352.300293,1053.319946 
	C1347.331543,1072.664429 1342.107666,1091.958862 1336.362061,1111.084717 
	C1328.717651,1136.531616 1320.726440,1161.882690 1312.373535,1187.105713 
	C1305.579468,1207.621338 1298.523071,1228.078369 1290.697876,1248.217285 
	C1280.940796,1273.328125 1270.548828,1298.203491 1259.914185,1322.958252 
	C1251.558594,1342.407837 1242.702515,1361.656616 1233.550293,1380.745972 
	C1223.617188,1401.464478 1213.545288,1422.142456 1202.691650,1442.386597 
	C1190.034790,1465.994629 1176.723267,1489.264160 1163.214844,1512.399536 
	C1151.461426,1532.529053 1139.752686,1552.748291 1126.751953,1572.071899 
	C1104.616943,1604.972412 1081.874756,1637.484131 1058.627563,1669.609253 
	C1043.909302,1689.948486 1028.022705,1709.459351 1012.259827,1729.019165 
	C1002.188721,1741.516357 991.549866,1753.569946 980.870911,1765.559937 
	C966.761353,1781.401611 952.683228,1797.292725 938.011230,1812.606567 
	C918.340332,1833.137695 898.314941,1853.340820 878.051758,1873.288452 
	C865.653259,1885.494019 852.750732,1897.215820 839.666443,1908.689453 
	C822.000854,1924.180420 804.153381,1939.480347 785.993591,1954.386597 
	C768.361572,1968.859619 750.252319,1982.752197 732.303162,1996.836670 
	C730.497864,1998.253296 728.350830,1999.234375 726.181152,2000.708740 
	C722.638733,2001.000000 719.277405,2001.000000 715.458069,2001.000000 
	C707.717163,1995.353394 700.361694,1989.797363 693.167358,1984.040283 
	C679.871033,1973.400391 666.600281,1962.726440 653.447937,1951.909546 
	C641.184021,1941.823364 629.022949,1931.609375 616.942932,1921.303589 
	C610.135071,1915.495605 603.516968,1909.459473 596.929321,1903.400024 
	C583.983459,1891.492432 570.881653,1879.740234 558.285522,1867.470703 
	C545.219299,1854.743408 532.644287,1841.510132 519.913574,1828.440552 
	C510.802338,1819.086914 501.544708,1809.859131 492.785461,1800.183105 
	C477.445465,1783.237549 462.138885,1766.244141 447.370117,1748.803467 
	C430.379211,1728.738647 413.773407,1708.336548 397.411469,1687.754028 
	C386.924225,1674.561646 376.961700,1660.934692 367.154633,1647.223267 
	C353.208771,1627.725220 339.315948,1608.175537 325.976196,1588.262207 
	C314.753204,1571.508789 304.080139,1554.368896 293.654724,1537.103516 
	C279.971985,1514.443970 266.488312,1491.653320 253.462402,1468.611816 
	C244.677216,1453.071777 236.700928,1437.067383 228.598648,1421.150513 
	C219.537354,1403.349487 210.555115,1385.503174 201.894806,1367.505005 
	C195.732025,1354.697266 190.068024,1341.645874 184.347321,1328.630249 
	C178.170914,1314.577637 171.931198,1300.543579 166.182816,1286.314087 
	C158.512177,1267.326172 151.153809,1248.208740 143.915573,1229.050781 
	C138.081451,1213.609253 132.340088,1198.120850 127.069046,1182.480957 
	C119.788696,1160.879028 112.859459,1139.156006 106.027779,1117.406982 
	C101.277031,1102.282715 96.662750,1087.104004 92.491531,1071.812134 
	C86.846443,1051.116821 81.465126,1030.343506 76.373672,1009.505066 
	C70.731438,986.412415 65.387062,963.243652 60.206734,940.042419 
	C55.999447,921.199219 52.022888,902.298950 48.314152,883.351501 
	C44.034702,861.488464 39.925625,839.586243 36.173885,817.627319 
	C31.892759,792.569763 27.909395,767.457642 24.139256,742.317871 
	C21.763792,726.478027 19.979559,710.548584 17.997320,694.650879 
	C15.647246,675.803101 13.125208,656.972107 11.134419,638.085632 
	C9.417906,621.801270 8.231637,605.457703 7.011376,589.125305 
	C5.555801,569.643372 4.335645,550.143921 2.934054,530.657776 
	C2.831595,529.233276 2.085352,527.855103 1.319206,526.227661 
	C1.000000,526.000000 1.000000,525.500000 1.307932,524.975830 
	C1.410576,520.967773 1.205288,517.483887 0.999999,514.000000 
	C1.000000,489.312439 1.000000,464.624878 0.999998,439.468658 
	C7.379348,433.784515 13.829076,428.652405 20.123541,423.336426 
	C33.522285,412.020538 46.814484,400.578552 60.198410,389.245026 
	C75.223770,376.521576 90.093269,363.601837 105.413322,351.241852 
	C122.390114,337.545227 139.602539,324.121399 157.070023,311.056976 
	C179.700607,294.130920 202.434601,277.319855 225.591171,261.127258 
	C246.307922,246.640747 267.503540,232.819580 288.772644,219.147903 
	C310.188812,205.381714 331.789795,191.884766 353.616577,178.780762 
	C375.034668,165.922119 396.629700,153.325775 418.524384,141.301331 
	C448.126953,125.043762 477.857544,108.984825 507.967468,93.695854 
	C534.629883,80.157417 561.669495,67.307419 588.937012,55.029354 
	C620.590759,40.776276 652.615356,27.337774 684.604675,13.843711 
	C695.396240,9.291479 706.571716,5.649497 717.785889,1.295756 
	C720.041687,1.000000 722.083313,1.000000 724.562500,1.000008 
M199.860870,1304.565552 
	C206.716049,1320.000366 213.254807,1335.585571 220.502518,1350.833862 
	C230.712921,1372.315186 241.319977,1393.611572 252.003555,1414.863403 
	C259.513641,1429.802368 266.942627,1444.817749 275.277069,1459.298706 
	C290.536407,1485.811523 306.118530,1512.151855 322.176270,1538.187744 
	C334.583466,1558.304810 347.331268,1578.265747 360.985901,1597.546631 
	C381.616302,1626.677612 402.647034,1655.559204 424.484863,1683.791016 
	C443.694641,1708.625122 463.835693,1732.775024 484.335754,1756.563354 
	C500.329956,1775.122803 517.212769,1792.947266 534.244934,1810.572510 
	C549.508301,1826.367188 565.473816,1841.485962 581.208435,1856.821899 
	C590.321838,1865.704224 599.397888,1874.640503 608.837524,1883.168701 
	C621.738708,1894.824097 634.929810,1906.160400 648.073303,1917.545044 
	C657.458191,1925.674072 666.815613,1933.846924 676.460693,1941.660278 
	C690.202515,1952.792236 704.232544,1963.567871 718.048157,1974.610107 
	C720.338623,1976.440796 722.197266,1976.965942 724.578369,1974.968628 
	C730.280701,1970.185547 736.019531,1965.443970 741.815063,1960.774292 
	C755.075928,1950.089966 768.659424,1939.786499 781.600525,1928.729858 
	C801.372375,1911.837036 820.928650,1894.676758 840.167175,1877.179932 
	C855.463684,1863.268311 870.499084,1849.029785 885.013916,1834.308960 
	C902.932190,1816.136841 920.319275,1797.433594 937.688782,1778.730469 
	C948.737671,1766.833252 959.588745,1754.731934 970.080933,1742.343262 
	C986.213806,1723.294067 1002.544800,1704.366577 1017.735229,1684.576416 
	C1039.774170,1655.864014 1061.720947,1627.009521 1082.136353,1597.142090 
	C1103.498413,1565.889526 1123.659058,1533.760376 1143.123657,1501.282593 
	C1160.467651,1472.343018 1176.405273,1442.545166 1192.446899,1412.847046 
	C1200.717651,1397.534912 1208.164551,1381.753906 1215.449341,1365.938477 
	C1227.352905,1340.095825 1239.497070,1314.329956 1250.300415,1288.022827 
	C1263.988403,1254.690552 1276.913818,1221.023438 1289.262329,1187.170410 
	C1298.427246,1162.045044 1306.845825,1136.596802 1314.346313,1110.927002 
	C1324.860352,1074.943237 1334.804688,1038.767822 1343.883911,1002.397522 
	C1351.799805,970.687622 1358.407837,938.642456 1365.165649,906.655029 
	C1370.453735,881.623596 1375.436646,856.515930 1379.915405,831.328430 
	C1384.712891,804.348083 1388.947754,777.263062 1393.080444,750.170654 
	C1396.640625,726.830872 1399.765991,703.423889 1402.974243,680.031677 
	C1404.432983,669.395813 1405.681396,658.729919 1406.927368,648.066284 
	C1408.020630,638.708496 1409.095825,629.345642 1409.965088,619.965271 
	C1411.125488,607.442749 1412.008545,594.894775 1413.140137,582.369385 
	C1414.344971,569.032898 1415.908691,555.726013 1416.929565,542.376648 
	C1417.877197,529.984253 1418.529907,517.559814 1418.926025,505.137177 
	C1419.471802,488.021057 1419.704346,470.893982 1419.912720,453.769623 
	C1419.932617,452.134827 1419.239380,450.119751 1418.163574,448.922485 
	C1416.078003,446.601532 1413.490967,444.729370 1411.100220,442.684723 
	C1397.516235,431.066956 1383.863037,419.528778 1370.362061,407.815216 
	C1358.598022,397.608643 1347.295288,386.850952 1335.265137,376.974670 
	C1318.144165,362.918976 1300.846680,349.040131 1283.075317,335.824219 
	C1258.673340,317.677521 1234.162598,299.621765 1208.963745,282.615845 
	C1174.006714,259.024475 1138.498047,236.239502 1102.960571,213.523972 
	C1087.077881,203.371780 1070.690063,193.981934 1054.283936,184.683014 
	C1028.085205,169.833801 1001.777039,155.170349 975.324158,140.779358 
	C960.088562,132.490814 944.515259,124.817764 929.025635,117.002998 
	C911.485229,108.153542 894.046631,99.072769 876.242310,90.782898 
	C850.596680,78.842026 824.818054,67.156517 798.803833,56.046425 
	C774.321106,45.590336 749.488403,35.948086 724.713928,26.190735 
	C722.558899,25.341995 719.440186,25.659523 717.191956,26.528910 
	C697.601868,34.104393 677.895813,41.439354 658.633728,49.790215 
	C626.131531,63.881153 593.772156,78.326210 561.655212,93.272354 
	C540.240601,103.237991 519.265686,114.165939 498.251526,124.969589 
	C479.275574,134.725403 460.361481,144.622650 441.696198,154.956223 
	C418.962799,167.542007 396.293884,180.274902 374.004517,193.624451 
	C345.201416,210.875198 316.553741,228.413391 288.307892,246.557526 
	C266.619446,260.489410 245.568756,275.424500 224.399551,290.150818 
	C209.064346,300.818726 193.669052,311.447144 178.888229,322.854675 
	C154.017700,342.049194 129.386124,361.570526 105.086952,381.482727 
	C86.015221,397.111206 67.587730,413.526459 48.894344,429.615753 
	C42.617085,435.018555 36.586708,440.728546 30.083700,445.840454 
	C26.661722,448.530426 24.784899,451.185272 24.921511,455.742950 
	C25.753029,483.484314 26.313728,511.233673 27.052364,538.978088 
	C27.171169,543.440613 27.700027,547.893982 28.089273,552.347229 
	C29.716642,570.965454 31.384024,589.580261 32.993359,608.200073 
	C33.763100,617.105835 34.154518,626.053589 35.212574,634.923218 
	C37.285828,652.303101 39.759129,669.634888 41.966442,686.999268 
	C43.799976,701.423279 45.277107,715.895508 47.303425,730.291321 
	C49.281853,744.346863 51.723778,758.337891 54.020405,772.347717 
	C57.091660,791.082947 59.992966,809.849976 63.387249,828.527039 
	C66.633110,846.387573 70.272659,864.180481 73.997322,881.948975 
	C79.753860,909.410583 85.581215,936.859314 91.675621,964.247375 
	C94.758820,978.103088 98.450478,991.824890 101.943565,1005.587769 
	C106.898087,1025.108887 111.812416,1044.641357 116.959831,1064.111938 
	C120.041496,1075.768799 123.447655,1087.342529 126.863144,1098.907837 
	C132.431595,1117.763184 137.812546,1136.682739 143.860855,1155.384888 
	C149.450119,1172.667603 155.708099,1189.737793 161.863266,1206.832642 
	C167.793350,1223.302490 173.767609,1239.761841 180.093414,1256.082031 
	C186.308563,1272.116699 192.990189,1287.970581 199.860870,1304.565552 
z"/>
<path fill="#ffffff00" opacity="1.000000" stroke="none" 
	d="
M0.999999,514.458069 
	C1.205288,517.483887 1.410576,520.967773 1.307932,524.725830 
	C1.000000,521.638733 1.000000,518.277405 0.999999,514.458069 
z"/>
<path fill="#ffffff00" opacity="1.000000" stroke="none" 
	d="
M199.663986,1304.234619 
	C192.990189,1287.970581 186.308563,1272.116699 180.093414,1256.082031 
	C173.767609,1239.761841 167.793350,1223.302490 161.863266,1206.832642 
	C155.708099,1189.737793 149.450119,1172.667603 143.860855,1155.384888 
	C137.812546,1136.682739 132.431595,1117.763184 126.863144,1098.907837 
	C123.447655,1087.342529 120.041496,1075.768799 116.959831,1064.111938 
	C111.812416,1044.641357 106.898087,1025.108887 101.943565,1005.587769 
	C98.450478,991.824890 94.758820,978.103088 91.675621,964.247375 
	C85.581215,936.859314 79.753860,909.410583 73.997322,881.948975 
	C70.272659,864.180481 66.633110,846.387573 63.387249,828.527039 
	C59.992966,809.849976 57.091660,791.082947 54.020405,772.347717 
	C51.723778,758.337891 49.281853,744.346863 47.303425,730.291321 
	C45.277107,715.895508 43.799976,701.423279 41.966442,686.999268 
	C39.759129,669.634888 37.285828,652.303101 35.212574,634.923218 
	C34.154518,626.053589 33.763100,617.105835 32.993359,608.200073 
	C31.384024,589.580261 29.716642,570.965454 28.089273,552.347229 
	C27.700027,547.893982 27.171169,543.440613 27.052364,538.978088 
	C26.313728,511.233673 25.753029,483.484314 24.921511,455.742950 
	C24.784899,451.185272 26.661722,448.530426 30.083700,445.840454 
	C36.586708,440.728546 42.617085,435.018555 48.894344,429.615753 
	C67.587730,413.526459 86.015221,397.111206 105.086952,381.482727 
	C129.386124,361.570526 154.017700,342.049194 178.888229,322.854675 
	C193.669052,311.447144 209.064346,300.818726 224.399551,290.150818 
	C245.568756,275.424500 266.619446,260.489410 288.307892,246.557526 
	C316.553741,228.413391 345.201416,210.875198 374.004517,193.624451 
	C396.293884,180.274902 418.962799,167.542007 441.696198,154.956223 
	C460.361481,144.622650 479.275574,134.725403 498.251526,124.969589 
	C519.265686,114.165939 540.240601,103.237991 561.655212,93.272354 
	C593.772156,78.326210 626.131531,63.881153 658.633728,49.790215 
	C677.895813,41.439354 697.601868,34.104393 717.191956,26.528910 
	C719.440186,25.659523 722.558899,25.341995 724.713928,26.190735 
	C749.488403,35.948086 774.321106,45.590336 798.803833,56.046425 
	C824.818054,67.156517 850.596680,78.842026 876.242310,90.782898 
	C894.046631,99.072769 911.485229,108.153542 929.025635,117.002998 
	C944.515259,124.817764 960.088562,132.490814 975.324158,140.779358 
	C1001.777039,155.170349 1028.085205,169.833801 1054.283936,184.683014 
	C1070.690063,193.981934 1087.077881,203.371780 1102.960571,213.523972 
	C1138.498047,236.239502 1174.006714,259.024475 1208.963745,282.615845 
	C1234.162598,299.621765 1258.673340,317.677521 1283.075317,335.824219 
	C1300.846680,349.040131 1318.144165,362.918976 1335.265137,376.974670 
	C1347.295288,386.850952 1358.598022,397.608643 1370.362061,407.815216 
	C1383.863037,419.528778 1397.516235,431.066956 1411.100220,442.684723 
	C1413.490967,444.729370 1416.078003,446.601532 1418.163574,448.922485 
	C1419.239380,450.119751 1419.932617,452.134827 1419.912720,453.769623 
	C1419.704346,470.893982 1419.471802,488.021057 1418.926025,505.137177 
	C1418.529907,517.559814 1417.877197,529.984253 1416.929565,542.376648 
	C1415.908691,555.726013 1414.344971,569.032898 1413.140137,582.369385 
	C1412.008545,594.894775 1411.125488,607.442749 1409.965088,619.965271 
	C1409.095825,629.345642 1408.020630,638.708496 1406.927368,648.066284 
	C1405.681396,658.729919 1404.432983,669.395813 1402.974243,680.031677 
	C1399.765991,703.423889 1396.640625,726.830872 1393.080444,750.170654 
	C1388.947754,777.263062 1384.712891,804.348083 1379.915405,831.328430 
	C1375.436646,856.515930 1370.453735,881.623596 1365.165649,906.655029 
	C1358.407837,938.642456 1351.799805,970.687622 1343.883911,1002.397522 
	C1334.804688,1038.767822 1324.860352,1074.943237 1314.346313,1110.927002 
	C1306.845825,1136.596802 1298.427246,1162.045044 1289.262329,1187.170410 
	C1276.913818,1221.023438 1263.988403,1254.690552 1250.300415,1288.022827 
	C1239.497070,1314.329956 1227.352905,1340.095825 1215.449341,1365.938477 
	C1208.164551,1381.753906 1200.717651,1397.534912 1192.446899,1412.847046 
	C1176.405273,1442.545166 1160.467651,1472.343018 1143.123657,1501.282593 
	C1123.659058,1533.760376 1103.498413,1565.889526 1082.136353,1597.142090 
	C1061.720947,1627.009521 1039.774170,1655.864014 1017.735229,1684.576416 
	C1002.544800,1704.366577 986.213806,1723.294067 970.080933,1742.343262 
	C959.588745,1754.731934 948.737671,1766.833252 937.688782,1778.730469 
	C920.319275,1797.433594 902.932190,1816.136841 885.013916,1834.308960 
	C870.499084,1849.029785 855.463684,1863.268311 840.167175,1877.179932 
	C820.928650,1894.676758 801.372375,1911.837036 781.600525,1928.729858 
	C768.659424,1939.786499 755.075928,1950.089966 741.815063,1960.774292 
	C736.019531,1965.443970 730.280701,1970.185547 724.578369,1974.968628 
	C722.197266,1976.965942 720.338623,1976.440796 718.048157,1974.610107 
	C704.232544,1963.567871 690.202515,1952.792236 676.460693,1941.660278 
	C666.815613,1933.846924 657.458191,1925.674072 648.073303,1917.545044 
	C634.929810,1906.160400 621.738708,1894.824097 608.837524,1883.168701 
	C599.397888,1874.640503 590.321838,1865.704224 581.208435,1856.821899 
	C565.473816,1841.485962 549.508301,1826.367188 534.244934,1810.572510 
	C517.212769,1792.947266 500.329956,1775.122803 484.335754,1756.563354 
	C463.835693,1732.775024 443.694641,1708.625122 424.484863,1683.791016 
	C402.647034,1655.559204 381.616302,1626.677612 360.985901,1597.546631 
	C347.331268,1578.265747 334.583466,1558.304810 322.176270,1538.187744 
	C306.118530,1512.151855 290.536407,1485.811523 275.277069,1459.298706 
	C266.942627,1444.817749 259.513641,1429.802368 252.003555,1414.863403 
	C241.319977,1393.611572 230.712921,1372.315186 220.502518,1350.833862 
	C213.254807,1335.585571 206.716049,1320.000366 199.663986,1304.234619 
M987.463684,1620.947388 
	C997.013794,1607.866699 1006.773438,1594.932739 1016.058838,1581.666870 
	C1026.582764,1566.631226 1036.789917,1551.369629 1046.931641,1536.071655 
	C1055.242065,1523.536011 1063.605347,1511.012451 1071.320312,1498.109863 
	C1083.973145,1476.948975 1096.436523,1455.660767 1108.392822,1434.100952 
	C1121.237915,1410.938477 1134.324707,1387.836060 1145.658569,1363.926514 
	C1163.511353,1326.265137 1180.365112,1288.114624 1196.898926,1249.850098 
	C1206.390869,1227.883057 1214.932861,1205.466675 1222.971436,1182.920532 
	C1232.555786,1156.039551 1241.516113,1128.919800 1250.041992,1101.682983 
	C1256.647461,1080.581543 1262.272827,1059.169556 1268.141846,1037.842773 
	C1273.221924,1019.382996 1278.386230,1000.934204 1282.865356,982.324585 
	C1287.691528,962.272339 1291.820923,942.050842 1296.148560,921.880493 
	C1299.854492,904.609192 1303.599365,887.342529 1306.980713,870.006348 
	C1310.487061,852.029602 1313.641235,833.983032 1316.828491,815.945618 
	C1319.299316,801.962524 1321.815186,787.980713 1323.895386,773.936768 
	C1326.847534,754.007568 1329.387085,734.017517 1332.161987,714.061646 
	C1334.048950,700.491699 1336.137817,686.949219 1337.953857,673.370056 
	C1340.033813,657.819397 1341.812744,642.228210 1343.915527,626.680725 
	C1345.111450,617.837952 1343.977783,615.410156 1336.636230,612.322632 
	C1325.505981,607.641907 1314.431152,602.829285 1303.319336,598.104370 
	C1283.068848,589.493286 1262.896240,580.690552 1242.530884,572.360046 
	C1214.367920,560.839905 1186.115356,549.532959 1157.793335,538.409180 
	C1124.862671,525.475342 1091.919312,512.560669 1058.785156,500.162231 
	C1033.399902,490.663330 1007.778870,481.777405 982.135010,472.991577 
	C958.977112,465.057495 935.756165,457.271118 912.361023,450.076050 
	C888.039734,442.596100 863.610413,435.384460 838.978882,429.021088 
	C817.096375,423.367920 794.991150,418.382080 772.758423,414.345428 
	C757.027344,411.489197 740.952942,410.096283 724.967712,409.223206 
	C714.953735,408.676270 704.726990,409.654266 694.761353,411.094025 
	C675.009949,413.947479 655.244141,416.982056 635.726685,421.092560 
	C617.645203,424.900635 599.816284,429.980133 581.991882,434.917694 
	C560.815674,440.783722 539.671997,446.802063 518.684326,453.303406 
	C500.228210,459.020630 481.992157,465.452362 463.685608,471.647217 
	C446.944946,477.312195 430.146210,482.824829 413.540558,488.865112 
	C386.497742,498.701813 359.546967,508.796570 332.641876,519.005127 
	C312.079865,526.806946 291.589752,534.806335 271.172394,542.979431 
	C238.006729,556.255798 204.855804,569.574341 171.834549,583.204285 
	C148.280869,592.926270 124.969383,603.233887 101.500931,613.164612 
	C97.520622,614.848877 95.340668,617.032776 95.953186,621.741089 
	C97.530670,633.866821 98.594635,646.060852 100.258080,658.173523 
	C102.638641,675.507996 105.424454,692.786499 107.937080,710.103394 
	C110.734848,729.385498 113.118057,748.732971 116.237968,767.961792 
	C119.488663,787.996521 123.322876,807.938599 127.047852,827.893921 
	C131.377975,851.090881 135.654068,874.301636 140.360306,897.423584 
	C143.552887,913.108887 147.374542,928.668457 151.043121,944.254028 
	C155.959259,965.139893 160.892319,986.022949 166.026443,1006.855896 
	C169.106110,1019.352417 172.442276,1031.790405 175.912643,1044.184814 
	C181.875092,1065.479980 187.896454,1086.760742 194.168930,1107.965942 
	C197.068192,1117.767578 200.553909,1127.398682 203.885086,1137.068848 
	C210.869934,1157.345093 217.687286,1177.683838 225.032288,1197.829834 
	C231.031219,1214.283691 237.548660,1230.554321 244.107224,1246.796875 
	C250.788574,1263.343384 257.556183,1279.864014 264.744293,1296.194214 
	C270.728912,1309.790405 277.335327,1323.114502 283.743225,1336.522339 
	C290.719543,1351.119507 297.504944,1365.817627 304.883606,1380.210205 
	C313.639679,1397.289551 322.782379,1414.176880 332.050476,1430.985718 
	C340.441254,1446.203491 348.910034,1461.395752 357.916687,1476.252197 
	C369.313873,1495.051880 381.124634,1513.607666 393.065887,1532.068848 
	C403.750488,1548.587158 414.395325,1565.164917 425.887024,1581.119263 
	C440.956238,1602.040161 456.460052,1622.675415 472.469940,1642.884521 
	C491.671173,1667.121948 511.226166,1691.103516 531.341431,1714.584595 
	C546.337097,1732.089233 562.079529,1749.000732 578.189026,1765.493164 
	C598.193726,1785.973389 618.895386,1805.774048 639.353149,1825.809814 
	C643.729187,1830.095459 648.274048,1834.217285 652.873230,1838.264404 
	C665.802185,1849.641602 678.764771,1860.981201 691.782837,1872.256104 
	C700.664673,1879.948853 709.723511,1887.437988 718.564819,1895.176025 
	C720.806213,1897.137695 722.223755,1897.072021 724.457520,1895.126343 
	C738.437500,1882.949829 752.793091,1871.194946 766.559265,1858.784546 
	C785.296082,1841.893066 803.631836,1824.556030 822.101868,1807.369507 
	C825.477234,1804.228516 828.651672,1800.872437 831.953918,1797.651611 
	C840.486938,1789.329224 849.325195,1781.298096 857.523438,1772.658936 
	C873.610413,1755.707153 889.415649,1738.485840 905.195801,1721.246338 
	C912.800903,1712.938232 920.213501,1704.444580 927.480225,1695.838135 
	C936.761841,1684.845947 945.944519,1673.764038 954.920349,1662.521729 
	C965.750183,1648.956909 976.318542,1635.183228 987.463684,1620.947388 
M770.103760,153.462982 
	C758.616821,157.383087 748.173584,163.208008 738.000244,171.984848 
	C738.000244,168.949844 738.000305,167.189133 738.000244,165.428436 
	C737.999634,152.263123 737.849670,139.095184 738.082642,125.934006 
	C738.159973,121.564140 737.165283,119.610138 732.333130,119.901894 
	C725.691345,120.302887 718.998230,120.212090 712.344543,119.926392 
	C708.244507,119.750359 706.845703,121.048897 706.917603,125.253700 
	C707.148254,138.748352 707.010498,152.249451 706.987732,165.748032 
	C706.984863,167.457474 706.820374,169.166656 706.706543,171.338120 
	C658.323120,132.745880 603.141724,150.357880 580.502197,176.790176 
	C587.456848,183.650894 594.394714,190.495071 601.562134,197.565674 
	C601.893921,197.300186 602.666565,196.715973 603.402161,196.088303 
	C622.453796,179.830002 644.127930,174.991516 667.623413,183.545715 
	C695.686890,193.763000 712.435425,224.479141 706.081177,253.958908 
	C699.395752,284.974823 672.703552,302.385223 644.268066,302.925140 
	C628.626587,303.222137 614.649170,298.265076 603.009094,287.498932 
	C600.603821,285.274200 598.624084,284.606262 595.937317,287.447052 
	C590.561829,293.130646 584.761963,298.412201 579.353394,304.066376 
	C578.725220,304.723083 578.924072,307.302399 579.655457,307.940674 
	C583.756226,311.519318 587.858459,315.231842 592.473267,318.062073 
	C610.827637,329.318756 630.591980,335.519440 652.380493,332.943268 
	C662.899536,331.699585 673.248291,329.521790 682.612244,324.166077 
	C689.969604,319.958038 697.292725,315.690186 704.999878,311.235687 
	C704.999878,313.269165 704.999634,315.085907 705.000000,316.902649 
	C705.002441,330.401245 705.087646,343.900696 704.949951,357.397858 
	C704.915222,360.802307 705.952087,362.160797 709.493958,362.052521 
	C716.320129,361.843781 723.166504,361.780304 729.986694,362.073090 
	C734.502930,362.266968 736.182373,360.812531 736.087952,356.120026 
	C735.826477,343.126648 735.988403,330.124512 736.013672,317.125916 
	C736.016968,315.448578 736.200928,313.771576 736.334839,311.531860 
	C740.398682,314.568542 743.535706,317.294525 747.023315,319.454559 
	C764.884705,330.516663 784.254089,335.374603 805.250000,332.977692 
	C809.011292,332.548279 812.736694,331.751923 816.455139,331.007599 
	C833.116516,327.672394 847.469910,319.858826 860.002136,308.508331 
	C862.138062,306.573792 862.365601,304.947052 860.245056,302.661133 
	C855.969727,298.052338 851.932251,293.218323 847.895142,288.394806 
	C845.242493,285.225494 843.365051,284.505615 839.489136,287.730072 
	C824.353088,300.322083 806.864563,305.917542 787.237183,301.824890 
	C756.095520,295.331329 734.599792,267.707916 737.842651,234.523849 
	C740.926270,202.968567 770.748230,176.378845 804.634644,179.953278 
	C818.566040,181.422821 830.876282,186.384415 840.974609,196.213470 
	C843.087158,198.269592 844.087646,198.175873 846.091919,196.021912 
	C850.737305,191.029449 855.689697,186.310211 860.682495,181.657089 
	C865.111267,177.529587 865.049744,175.705856 860.059570,171.994125 
	C858.202759,170.612961 856.662170,168.798355 854.776367,167.465790 
	C829.090149,149.314697 801.153015,144.225601 770.103760,153.462982 
z"/>
<path fill="#292524" opacity="1.000000" stroke="none" 
	d="
M987.231812,1621.223633 
	C976.318542,1635.183228 965.750183,1648.956909 954.920349,1662.521729 
	C945.944519,1673.764038 936.761841,1684.845947 927.480225,1695.838135 
	C920.213501,1704.444580 912.800903,1712.938232 905.195801,1721.246338 
	C889.415649,1738.485840 873.610413,1755.707153 857.523438,1772.658936 
	C849.325195,1781.298096 840.486938,1789.329224 831.953918,1797.651611 
	C828.651672,1800.872437 825.477234,1804.228516 822.101868,1807.369507 
	C803.631836,1824.556030 785.296082,1841.893066 766.559265,1858.784546 
	C752.793091,1871.194946 738.437500,1882.949829 724.457520,1895.126343 
	C722.223755,1897.072021 720.806213,1897.137695 718.564819,1895.176025 
	C709.723511,1887.437988 700.664673,1879.948853 691.782837,1872.256104 
	C678.764771,1860.981201 665.802185,1849.641602 652.873230,1838.264404 
	C648.274048,1834.217285 643.729187,1830.095459 639.353149,1825.809814 
	C618.895386,1805.774048 598.193726,1785.973389 578.189026,1765.493164 
	C562.079529,1749.000732 546.337097,1732.089233 531.341431,1714.584595 
	C511.226166,1691.103516 491.671173,1667.121948 472.469940,1642.884521 
	C456.460052,1622.675415 440.956238,1602.040161 425.887024,1581.119263 
	C414.395325,1565.164917 403.750488,1548.587158 393.065887,1532.068848 
	C381.124634,1513.607666 369.313873,1495.051880 357.916687,1476.252197 
	C348.910034,1461.395752 340.441254,1446.203491 332.050476,1430.985718 
	C322.782379,1414.176880 313.639679,1397.289551 304.883606,1380.210205 
	C297.504944,1365.817627 290.719543,1351.119507 283.743225,1336.522339 
	C277.335327,1323.114502 270.728912,1309.790405 264.744293,1296.194214 
	C257.556183,1279.864014 250.788574,1263.343384 244.107224,1246.796875 
	C237.548660,1230.554321 231.031219,1214.283691 225.032288,1197.829834 
	C217.687286,1177.683838 210.869934,1157.345093 203.885086,1137.068848 
	C200.553909,1127.398682 197.068192,1117.767578 194.168930,1107.965942 
	C187.896454,1086.760742 181.875092,1065.479980 175.912643,1044.184814 
	C172.442276,1031.790405 169.106110,1019.352417 166.026443,1006.855896 
	C160.892319,986.022949 155.959259,965.139893 151.043121,944.254028 
	C147.374542,928.668457 143.552887,913.108887 140.360306,897.423584 
	C135.654068,874.301636 131.377975,851.090881 127.047852,827.893921 
	C123.322876,807.938599 119.488663,787.996521 116.237968,767.961792 
	C113.118057,748.732971 110.734848,729.385498 107.937080,710.103394 
	C105.424454,692.786499 102.638641,675.507996 100.258080,658.173523 
	C98.594635,646.060852 97.530670,633.866821 95.953186,621.741089 
	C95.340668,617.032776 97.520622,614.848877 101.500931,613.164612 
	C124.969383,603.233887 148.280869,592.926270 171.834549,583.204285 
	C204.855804,569.574341 238.006729,556.255798 271.172394,542.979431 
	C291.589752,534.806335 312.079865,526.806946 332.641876,519.005127 
	C359.546967,508.796570 386.497742,498.701813 413.540558,488.865112 
	C430.146210,482.824829 446.944946,477.312195 463.685608,471.647217 
	C481.992157,465.452362 500.228210,459.020630 518.684326,453.303406 
	C539.671997,446.802063 560.815674,440.783722 581.991882,434.917694 
	C599.816284,429.980133 617.645203,424.900635 635.726685,421.092560 
	C655.244141,416.982056 675.009949,413.947479 694.761353,411.094025 
	C704.726990,409.654266 714.953735,408.676270 724.967712,409.223206 
	C740.952942,410.096283 757.027344,411.489197 772.758423,414.345428 
	C794.991150,418.382080 817.096375,423.367920 838.978882,429.021088 
	C863.610413,435.384460 888.039734,442.596100 912.361023,450.076050 
	C935.756165,457.271118 958.977112,465.057495 982.135010,472.991577 
	C1007.778870,481.777405 1033.399902,490.663330 1058.785156,500.162231 
	C1091.919312,512.560669 1124.862671,525.475342 1157.793335,538.409180 
	C1186.115356,549.532959 1214.367920,560.839905 1242.530884,572.360046 
	C1262.896240,580.690552 1283.068848,589.493286 1303.319336,598.104370 
	C1314.431152,602.829285 1325.505981,607.641907 1336.636230,612.322632 
	C1343.977783,615.410156 1345.111450,617.837952 1343.915527,626.680725 
	C1341.812744,642.228210 1340.033813,657.819397 1337.953857,673.370056 
	C1336.137817,686.949219 1334.048950,700.491699 1332.161987,714.061646 
	C1329.387085,734.017517 1326.847534,754.007568 1323.895386,773.936768 
	C1321.815186,787.980713 1319.299316,801.962524 1316.828491,815.945618 
	C1313.641235,833.983032 1310.487061,852.029602 1306.980713,870.006348 
	C1303.599365,887.342529 1299.854492,904.609192 1296.148560,921.880493 
	C1291.820923,942.050842 1287.691528,962.272339 1282.865356,982.324585 
	C1278.386230,1000.934204 1273.221924,1019.382996 1268.141846,1037.842773 
	C1262.272827,1059.169556 1256.647461,1080.581543 1250.041992,1101.682983 
	C1241.516113,1128.919800 1232.555786,1156.039551 1222.971436,1182.920532 
	C1214.932861,1205.466675 1206.390869,1227.883057 1196.898926,1249.850098 
	C1180.365112,1288.114624 1163.511353,1326.265137 1145.658569,1363.926514 
	C1134.324707,1387.836060 1121.237915,1410.938477 1108.392822,1434.100952 
	C1096.436523,1455.660767 1083.973145,1476.948975 1071.320312,1498.109863 
	C1063.605347,1511.012451 1055.242065,1523.536011 1046.931641,1536.071655 
	C1036.789917,1551.369629 1026.582764,1566.631226 1016.058838,1581.666870 
	C1006.773438,1594.932739 997.013794,1607.866699 987.231812,1621.223633 
M599.123840,1746.318726 
	C617.715210,1764.683350 635.974304,1783.400757 654.987854,1801.317383 
	C675.498474,1820.644653 696.796570,1839.134155 717.537537,1858.221191 
	C720.714050,1861.144409 722.607178,1860.730225 725.368164,1858.188599 
	C731.342285,1852.689941 737.525635,1847.419434 743.551025,1841.975464 
	C761.145081,1826.079468 779.350098,1810.792847 796.128784,1794.076294 
	C823.218201,1767.086670 849.496643,1739.275635 875.836426,1711.544556 
	C886.900391,1699.895996 897.608398,1687.864502 907.836243,1675.476929 
	C924.046204,1655.844238 940.161865,1636.102051 955.500732,1615.789551 
	C973.731323,1591.647583 991.466187,1567.108765 1008.713379,1542.254272 
	C1020.772827,1524.875610 1031.917725,1506.841064 1042.989380,1488.803711 
	C1055.105469,1469.064819 1066.875122,1449.105103 1078.401978,1429.015747 
	C1086.951660,1414.115234 1094.962891,1398.902100 1103.043335,1383.737305 
	C1109.026367,1372.508789 1115.073486,1361.293945 1120.496948,1349.792358 
	C1132.364136,1324.625000 1144.057983,1299.370972 1155.423218,1273.973633 
	C1162.847412,1257.383423 1169.875610,1240.599487 1176.527100,1223.684570 
	C1184.204712,1204.159790 1191.472412,1184.467041 1198.546875,1164.714233 
	C1204.896851,1146.984497 1211.141846,1129.197632 1216.713867,1111.213135 
	C1224.145752,1087.226318 1231.044556,1063.069824 1237.864380,1038.899170 
	C1243.111694,1020.301453 1248.287109,1001.665588 1252.767212,982.873230 
	C1258.662109,958.145691 1264.001831,933.281799 1269.282959,908.413208 
	C1273.465088,888.718811 1277.422485,868.970398 1281.076904,849.171631 
	C1285.930420,822.875427 1290.502563,796.525574 1294.980103,770.162170 
	C1297.522827,755.191345 1299.646484,740.149109 1301.936401,725.135559 
	C1302.982178,718.278076 1304.065430,711.424377 1304.969482,704.547607 
	C1306.583984,692.267029 1308.070435,679.969666 1309.620239,667.680481 
	C1310.736450,658.829834 1311.854858,649.979431 1313.000366,641.132446 
	C1313.405151,638.005371 1312.022949,636.299133 1309.141968,635.092651 
	C1291.746704,627.807800 1274.442383,620.306030 1257.043579,613.029602 
	C1236.899170,604.604858 1216.753052,596.177307 1196.490601,588.042786 
	C1170.702881,577.689819 1144.835205,567.533264 1118.933350,557.468323 
	C1088.566895,545.668518 1058.171509,533.940063 1027.700806,522.412720 
	C1011.002686,516.095642 994.170166,510.123749 977.312927,504.240356 
	C960.467896,498.361237 943.571655,492.616119 926.595154,487.129944 
	C911.819946,482.355072 896.941528,477.886169 882.036682,473.528595 
	C860.636292,467.271942 839.343811,460.516907 817.682922,455.317261 
	C796.683716,450.276398 775.346619,446.513428 754.026672,442.981720 
	C738.365845,440.387421 722.527039,438.439240 706.563599,440.952850 
	C686.023743,444.187103 665.369568,446.807648 644.957092,450.701538 
	C629.573547,453.636078 614.385498,457.778534 599.299561,462.051178 
	C569.573975,470.470032 539.875061,479.014679 510.365784,488.155396 
	C488.575897,494.904999 467.073334,502.592316 445.499603,510.026825 
	C424.884766,517.130981 404.246735,524.186829 383.798004,531.748352 
	C364.722260,538.802185 345.872955,546.469727 326.940460,553.909119 
	C300.615417,564.253479 274.255432,574.511475 248.005844,585.044373 
	C227.742783,593.175049 207.585129,601.572998 187.457047,610.033936 
	C168.695679,617.920471 150.024704,626.022827 131.364029,634.145203 
	C130.507721,634.517883 129.587387,636.052185 129.640671,636.992065 
	C129.968155,642.768860 130.373215,648.555298 131.111404,654.292358 
	C133.682755,674.276367 136.282806,694.258118 139.098145,714.208801 
	C141.612747,732.028259 144.249939,749.834412 147.152069,767.594299 
	C150.985565,791.053711 154.834854,814.517639 159.218658,837.878113 
	C164.272156,864.807190 169.648407,891.682678 175.384064,918.474548 
	C180.324707,941.552612 185.707367,964.544678 191.376984,987.455383 
	C196.373978,1007.648132 201.716888,1027.768677 207.491409,1047.752197 
	C214.230087,1071.072632 221.267822,1094.318848 228.797180,1117.394653 
	C236.029175,1139.559082 243.833267,1161.545044 251.802811,1183.458008 
	C258.241364,1201.161133 265.022827,1218.752075 272.161316,1236.184448 
	C279.371307,1253.791260 286.913574,1271.276245 294.838684,1288.572510 
	C306.880829,1314.854248 318.964722,1341.132935 331.819702,1367.021118 
	C341.456146,1386.427490 352.018860,1405.396729 362.741547,1424.234863 
	C375.413269,1446.497070 388.244446,1468.694580 401.841003,1490.397339 
	C417.551941,1515.475098 433.619659,1540.369019 450.557007,1564.627441 
	C466.733368,1587.795898 484.084839,1610.152588 501.194061,1632.657593 
	C511.197449,1645.815674 521.513611,1658.752563 532.102722,1671.443726 
	C541.865173,1683.144043 552.069397,1694.483276 562.280396,1705.799927 
	C574.358276,1719.185425 586.651917,1732.376465 599.123840,1746.318726 
z"/>
<path fill="#292524" opacity="1.000000" stroke="none" 
	d="
M770.470520,153.304138 
	C801.153015,144.225601 829.090149,149.314697 854.776367,167.465790 
	C856.662170,168.798355 858.202759,170.612961 860.059570,171.994125 
	C865.049744,175.705856 865.111267,177.529587 860.682495,181.657089 
	C855.689697,186.310211 850.737305,191.029449 846.091919,196.021912 
	C844.087646,198.175873 843.087158,198.269592 840.974609,196.213470 
	C830.876282,186.384415 818.566040,181.422821 804.634644,179.953278 
	C770.748230,176.378845 740.926270,202.968567 737.842651,234.523849 
	C734.599792,267.707916 756.095520,295.331329 787.237183,301.824890 
	C806.864563,305.917542 824.353088,300.322083 839.489136,287.730072 
	C843.365051,284.505615 845.242493,285.225494 847.895142,288.394806 
	C851.932251,293.218323 855.969727,298.052338 860.245056,302.661133 
	C862.365601,304.947052 862.138062,306.573792 860.002136,308.508331 
	C847.469910,319.858826 833.116516,327.672394 816.455139,331.007599 
	C812.736694,331.751923 809.011292,332.548279 805.250000,332.977692 
	C784.254089,335.374603 764.884705,330.516663 747.023315,319.454559 
	C743.535706,317.294525 740.398682,314.568542 736.334839,311.531860 
	C736.200928,313.771576 736.016968,315.448578 736.013672,317.125916 
	C735.988403,330.124512 735.826477,343.126648 736.087952,356.120026 
	C736.182373,360.812531 734.502930,362.266968 729.986694,362.073090 
	C723.166504,361.780304 716.320129,361.843781 709.493958,362.052521 
	C705.952087,362.160797 704.915222,360.802307 704.949951,357.397858 
	C705.087646,343.900696 705.002441,330.401245 705.000000,316.902649 
	C704.999634,315.085907 704.999878,313.269165 704.999878,311.235687 
	C697.292725,315.690186 689.969604,319.958038 682.612244,324.166077 
	C673.248291,329.521790 662.899536,331.699585 652.380493,332.943268 
	C630.591980,335.519440 610.827637,329.318756 592.473267,318.062073 
	C587.858459,315.231842 583.756226,311.519318 579.655457,307.940674 
	C578.924072,307.302399 578.725220,304.723083 579.353394,304.066376 
	C584.761963,298.412201 590.561829,293.130646 595.937317,287.447052 
	C598.624084,284.606262 600.603821,285.274200 603.009094,287.498932 
	C614.649170,298.265076 628.626587,303.222137 644.268066,302.925140 
	C672.703552,302.385223 699.395752,284.974823 706.081177,253.958908 
	C712.435425,224.479141 695.686890,193.763000 667.623413,183.545715 
	C644.127930,174.991516 622.453796,179.830002 603.402161,196.088303 
	C602.666565,196.715973 601.893921,197.300186 601.562134,197.565674 
	C594.394714,190.495071 587.456848,183.650894 580.502197,176.790176 
	C603.141724,150.357880 658.323120,132.745880 706.706543,171.338120 
	C706.820374,169.166656 706.984863,167.457474 706.987732,165.748032 
	C707.010498,152.249451 707.148254,138.748352 706.917603,125.253700 
	C706.845703,121.048897 708.244507,119.750359 712.344543,119.926392 
	C718.998230,120.212090 725.691345,120.302887 732.333130,119.901894 
	C737.165283,119.610138 738.159973,121.564140 738.082642,125.934006 
	C737.849670,139.095184 737.999634,152.263123 738.000244,165.428436 
	C738.000305,167.189133 738.000244,168.949844 738.000244,171.984848 
	C748.173584,163.208008 758.616821,157.383087 770.470520,153.304138 
z"/>
<path fill="#ffffff00" opacity="1.000000" stroke="none" 
	d="
M598.987915,1745.985352 
	C586.651917,1732.376465 574.358276,1719.185425 562.280396,1705.799927 
	C552.069397,1694.483276 541.865173,1683.144043 532.102722,1671.443726 
	C521.513611,1658.752563 511.197449,1645.815674 501.194061,1632.657593 
	C484.084839,1610.152588 466.733368,1587.795898 450.557007,1564.627441 
	C433.619659,1540.369019 417.551941,1515.475098 401.841003,1490.397339 
	C388.244446,1468.694580 375.413269,1446.497070 362.741547,1424.234863 
	C352.018860,1405.396729 341.456146,1386.427490 331.819702,1367.021118 
	C318.964722,1341.132935 306.880829,1314.854248 294.838684,1288.572510 
	C286.913574,1271.276245 279.371307,1253.791260 272.161316,1236.184448 
	C265.022827,1218.752075 258.241364,1201.161133 251.802811,1183.458008 
	C243.833267,1161.545044 236.029175,1139.559082 228.797180,1117.394653 
	C221.267822,1094.318848 214.230087,1071.072632 207.491409,1047.752197 
	C201.716888,1027.768677 196.373978,1007.648132 191.376984,987.455383 
	C185.707367,964.544678 180.324707,941.552612 175.384064,918.474548 
	C169.648407,891.682678 164.272156,864.807190 159.218658,837.878113 
	C154.834854,814.517639 150.985565,791.053711 147.152069,767.594299 
	C144.249939,749.834412 141.612747,732.028259 139.098145,714.208801 
	C136.282806,694.258118 133.682755,674.276367 131.111404,654.292358 
	C130.373215,648.555298 129.968155,642.768860 129.640671,636.992065 
	C129.587387,636.052185 130.507721,634.517883 131.364029,634.145203 
	C150.024704,626.022827 168.695679,617.920471 187.457047,610.033936 
	C207.585129,601.572998 227.742783,593.175049 248.005844,585.044373 
	C274.255432,574.511475 300.615417,564.253479 326.940460,553.909119 
	C345.872955,546.469727 364.722260,538.802185 383.798004,531.748352 
	C404.246735,524.186829 424.884766,517.130981 445.499603,510.026825 
	C467.073334,502.592316 488.575897,494.904999 510.365784,488.155396 
	C539.875061,479.014679 569.573975,470.470032 599.299561,462.051178 
	C614.385498,457.778534 629.573547,453.636078 644.957092,450.701538 
	C665.369568,446.807648 686.023743,444.187103 706.563599,440.952850 
	C722.527039,438.439240 738.365845,440.387421 754.026672,442.981720 
	C775.346619,446.513428 796.683716,450.276398 817.682922,455.317261 
	C839.343811,460.516907 860.636292,467.271942 882.036682,473.528595 
	C896.941528,477.886169 911.819946,482.355072 926.595154,487.129944 
	C943.571655,492.616119 960.467896,498.361237 977.312927,504.240356 
	C994.170166,510.123749 1011.002686,516.095642 1027.700806,522.412720 
	C1058.171509,533.940063 1088.566895,545.668518 1118.933350,557.468323 
	C1144.835205,567.533264 1170.702881,577.689819 1196.490601,588.042786 
	C1216.753052,596.177307 1236.899170,604.604858 1257.043579,613.029602 
	C1274.442383,620.306030 1291.746704,627.807800 1309.141968,635.092651 
	C1312.022949,636.299133 1313.405151,638.005371 1313.000366,641.132446 
	C1311.854858,649.979431 1310.736450,658.829834 1309.620239,667.680481 
	C1308.070435,679.969666 1306.583984,692.267029 1304.969482,704.547607 
	C1304.065430,711.424377 1302.982178,718.278076 1301.936401,725.135559 
	C1299.646484,740.149109 1297.522827,755.191345 1294.980103,770.162170 
	C1290.502563,796.525574 1285.930420,822.875427 1281.076904,849.171631 
	C1277.422485,868.970398 1273.465088,888.718811 1269.282959,908.413208 
	C1264.001831,933.281799 1258.662109,958.145691 1252.767212,982.873230 
	C1248.287109,1001.665588 1243.111694,1020.301453 1237.864380,1038.899170 
	C1231.044556,1063.069824 1224.145752,1087.226318 1216.713867,1111.213135 
	C1211.141846,1129.197632 1204.896851,1146.984497 1198.546875,1164.714233 
	C1191.472412,1184.467041 1184.204712,1204.159790 1176.527100,1223.684570 
	C1169.875610,1240.599487 1162.847412,1257.383423 1155.423218,1273.973633 
	C1144.057983,1299.370972 1132.364136,1324.625000 1120.496948,1349.792358 
	C1115.073486,1361.293945 1109.026367,1372.508789 1103.043335,1383.737305 
	C1094.962891,1398.902100 1086.951660,1414.115234 1078.401978,1429.015747 
	C1066.875122,1449.105103 1055.105469,1469.064819 1042.989380,1488.803711 
	C1031.917725,1506.841064 1020.772827,1524.875610 1008.713379,1542.254272 
	C991.466187,1567.108765 973.731323,1591.647583 955.500732,1615.789551 
	C940.161865,1636.102051 924.046204,1655.844238 907.836243,1675.476929 
	C897.608398,1687.864502 886.900391,1699.895996 875.836426,1711.544556 
	C849.496643,1739.275635 823.218201,1767.086670 796.128784,1794.076294 
	C779.350098,1810.792847 761.145081,1826.079468 743.551025,1841.975464 
	C737.525635,1847.419434 731.342285,1852.689941 725.368164,1858.188599 
	C722.607178,1860.730225 720.714050,1861.144409 717.537537,1858.221191 
	C696.796570,1839.134155 675.498474,1820.644653 654.987854,1801.317383 
	C635.974304,1783.400757 617.715210,1764.683350 598.987915,1745.985352 
M390.336029,704.825500 
	C382.806458,707.882324 374.143890,707.804810 366.153625,712.865845 
	C483.478485,746.057678 599.562561,778.898560 715.646667,811.739441 
	C700.776611,817.386719 686.054504,822.191528 671.264404,826.777405 
	C650.892578,833.093933 630.446106,839.170166 610.074341,845.487183 
	C587.524292,852.479614 565.044128,859.697632 542.493103,866.687012 
	C522.436523,872.903198 502.303650,878.873230 482.242279,885.074280 
	C455.410126,893.368103 428.623810,901.810303 401.781494,910.070618 
	C400.045654,910.604797 397.861389,910.580139 396.116760,910.052124 
	C370.320160,902.243530 344.555817,894.327942 318.797638,886.392822 
	C281.342682,874.854370 243.901337,863.271545 206.445709,851.735168 
	C203.230911,850.745056 199.952789,849.960510 196.006821,848.891663 
	C196.224503,851.502869 196.197556,853.304871 196.547058,855.030701 
	C198.971741,867.004211 201.377838,878.982910 203.972961,890.920166 
	C209.162964,914.793823 214.539764,938.627014 219.658997,962.515564 
	C220.486511,966.377014 222.318802,966.277039 225.328201,965.374939 
	C243.220581,960.011169 261.172729,954.846191 279.055084,949.449646 
	C316.408752,938.176941 353.690948,926.664185 391.118378,915.643372 
	C395.777679,914.271484 401.478119,914.089478 406.115601,915.403992 
	C424.079987,920.496216 441.794830,926.464111 459.629822,932.018555 
	C488.029724,940.863403 516.458008,949.617188 544.862427,958.447510 
	C590.481506,972.629517 636.090088,986.845581 681.705139,1001.040344 
	C693.133118,1004.596497 704.569214,1008.126221 717.176086,1012.031982 
	C714.670898,1013.033386 713.370544,1013.622192 712.025696,1014.080383 
	C693.414368,1020.421631 674.779907,1026.695679 656.184998,1033.084473 
	C631.009216,1041.734375 605.869751,1050.489868 580.700806,1059.159546 
	C563.351257,1065.135864 545.965149,1071.006348 528.619324,1076.993164 
	C514.561462,1081.845215 500.556549,1086.850952 486.496826,1091.697632 
	C468.848022,1097.781616 451.184265,1103.823730 433.474976,1109.728271 
	C431.620239,1110.346680 429.258087,1110.434082 427.399414,1109.875732 
	C419.971741,1107.644165 412.622711,1105.138550 405.293884,1102.592529 
	C376.563568,1092.611694 347.859589,1082.555420 319.130707,1072.570435 
	C300.237091,1066.003662 281.323212,1059.495117 262.406555,1052.994995 
	C256.252472,1050.880371 250.060837,1048.875244 243.886383,1046.820068 
	C243.440109,1047.209595 242.993835,1047.598999 242.547562,1047.988525 
	C254.512985,1086.816650 265.373627,1126.000122 280.470123,1163.908447 
	C281.611542,1163.729248 282.277222,1163.718018 282.879272,1163.516846 
	C301.056946,1157.435547 319.260651,1151.429810 337.393463,1145.217407 
	C366.794891,1135.144165 396.130646,1124.878906 425.556549,1114.878418 
	C428.074951,1114.022705 431.285065,1113.797852 433.789062,1114.554077 
	C443.268433,1117.416504 452.598846,1120.775879 461.967102,1124.001465 
	C476.196747,1128.901001 490.397156,1133.885742 504.636688,1138.756226 
	C517.918213,1143.298950 531.245667,1147.707520 544.532593,1152.234863 
	C558.776611,1157.088135 572.987793,1162.037964 587.230408,1166.895386 
	C600.055847,1171.269653 612.914307,1175.547363 625.740112,1179.920898 
	C639.356445,1184.564087 652.938721,1189.307495 666.559021,1193.938843 
	C683.557068,1199.718506 700.578796,1205.428589 718.830200,1211.587158 
	C715.628113,1213.079224 713.615540,1214.118774 711.527222,1214.973145 
	C700.047241,1219.670410 688.528198,1224.272583 677.060730,1229.000000 
	C652.895081,1238.962158 628.765503,1249.011963 604.597595,1258.968628 
	C583.493469,1267.663086 562.345154,1276.250366 541.238159,1284.937744 
	C521.966492,1292.869995 502.728699,1300.884521 483.454620,1308.810791 
	C482.498016,1309.204224 481.165558,1309.521484 480.296692,1309.167114 
	C461.501862,1301.500610 442.740387,1293.752197 423.988007,1285.982056 
	C391.893311,1272.683716 359.809113,1259.359863 327.720917,1246.045776 
	C322.778168,1243.994995 317.837372,1241.939453 312.895691,1239.886108 
	C312.411194,1240.300171 311.926666,1240.714355 311.442169,1241.128418 
	C327.303040,1280.777588 344.982941,1319.598755 365.188904,1357.617188 
	C372.668182,1354.660034 379.597382,1352.011963 386.456207,1349.192627 
	C415.066193,1337.432495 443.670868,1325.659180 472.226501,1313.768188 
	C475.039337,1312.596802 476.982330,1312.382446 480.163177,1313.708862 
	C503.509827,1323.444946 527.091858,1332.615234 550.575562,1342.024292 
	C575.141846,1351.867188 599.689209,1361.757446 624.229858,1371.664307 
	C648.464417,1381.447388 672.684387,1391.266602 696.901489,1401.092773 
	C703.727051,1403.862183 710.519714,1406.712402 718.404053,1409.970459 
	C713.585022,1412.719482 709.927795,1414.875366 706.207214,1416.915771 
	C691.976013,1424.720703 677.685486,1432.418213 663.489563,1440.286621 
	C640.317932,1453.130371 617.200073,1466.071167 594.065369,1478.981323 
	C577.149414,1488.421265 560.245056,1497.881714 543.329529,1507.322388 
	C540.240845,1509.046021 540.451172,1510.534058 543.451172,1512.178711 
	C549.260193,1515.362915 554.976501,1518.716064 560.780334,1521.909912 
	C580.947937,1533.008179 601.167114,1544.013184 621.309143,1555.157471 
	C644.780457,1568.143921 668.204895,1581.214966 691.620728,1594.301270 
	C699.777283,1598.859741 707.847290,1603.573120 716.718628,1608.651855 
	C672.932556,1632.745850 629.926086,1656.410767 586.703308,1680.194702 
	C587.454346,1681.456787 587.695190,1682.081421 588.117188,1682.538940 
	C600.492920,1695.962036 612.497314,1709.756104 625.371338,1722.684082 
	C643.439270,1740.827759 662.050232,1758.436768 680.637878,1776.054199 
	C690.260437,1785.174561 700.268066,1793.893921 710.223633,1802.656006 
	C717.712036,1809.246948 724.410217,1809.153687 731.841614,1802.660278 
	C737.330078,1797.864258 742.946350,1793.200928 748.237000,1788.194580 
	C763.813416,1773.454956 779.514282,1758.832275 794.677490,1743.674683 
	C809.518799,1728.838989 823.824646,1713.463745 838.227417,1698.195190 
	C843.412537,1692.698486 848.196045,1686.822998 853.819885,1680.365723 
	C810.840088,1656.290039 768.578613,1632.616699 725.578125,1608.529419 
	C731.564331,1605.252930 736.483887,1602.574097 741.391052,1599.872437 
	C771.132629,1583.498169 800.851074,1567.081665 830.617676,1550.752808 
	C854.130127,1537.854858 877.687256,1525.038208 901.283997,1512.295410 
	C902.487305,1511.645630 904.524658,1511.464844 905.715088,1512.030640 
	C919.907593,1518.774780 933.997803,1525.733643 948.147949,1532.567871 
	C954.786926,1535.774292 961.497620,1538.832397 967.983948,1541.868042 
	C985.035217,1515.385376 1001.790466,1489.362427 1018.545715,1463.339478 
	C1018.110413,1462.951050 1017.675110,1462.562622 1017.239868,1462.174194 
	C1016.199097,1462.436157 1015.108521,1462.576538 1014.125610,1462.979614 
	C1007.850037,1465.553223 1001.608887,1468.210571 995.336609,1470.792114 
	C969.025574,1481.621216 942.578491,1492.134888 916.467224,1503.425293 
	C908.157166,1507.018555 901.405090,1508.100220 892.941101,1503.202148 
	C865.155518,1487.122925 836.899414,1471.854004 808.760681,1456.389160 
	C785.969177,1443.862915 763.072449,1431.528198 740.253845,1419.051025 
	C735.134949,1416.251831 730.146729,1413.213623 724.455627,1409.912720 
	C726.453918,1408.973022 727.464783,1408.436768 728.520325,1408.011108 
	C737.875977,1404.237549 747.244568,1400.496216 756.599731,1396.721436 
	C775.464539,1389.109375 794.319763,1381.473511 813.185547,1373.863647 
	C830.520325,1366.871460 847.870056,1359.916260 865.201843,1352.916748 
	C884.831543,1344.989014 904.466125,1337.072998 924.065247,1329.070190 
	C937.358582,1323.641968 950.585999,1318.052368 963.874084,1312.611084 
	C964.772461,1312.243286 966.017639,1312.245850 966.955505,1312.540771 
	C969.631226,1313.381836 972.261597,1314.390259 974.856750,1315.461304 
	C1007.429321,1328.902954 1040.012939,1342.318604 1072.530151,1355.893066 
	C1076.235596,1357.439941 1078.217773,1356.930176 1079.987793,1353.223267 
	C1087.126465,1338.273193 1094.738281,1323.545410 1101.702881,1308.516724 
	C1110.603882,1289.308960 1119.085571,1269.906128 1127.653809,1250.545654 
	C1129.058105,1247.372437 1129.978760,1243.985352 1131.123047,1240.697144 
	C1124.209473,1242.246460 1118.434204,1244.585449 1112.676025,1246.965454 
	C1094.178223,1254.610596 1075.700806,1262.305664 1057.188843,1269.916504 
	C1035.923096,1278.659546 1014.621704,1287.315918 993.350403,1296.045288 
	C983.711304,1300.001099 973.987915,1303.788452 964.569519,1308.219238 
	C962.155273,1309.355103 960.716980,1309.856201 958.210693,1308.763794 
	C945.928345,1303.410156 933.563660,1298.240723 921.165100,1293.159912 
	C892.699463,1281.494629 864.172424,1269.979248 835.716431,1258.290771 
	C802.970947,1244.840088 770.270142,1231.280518 737.564758,1217.732300 
	C734.021545,1216.264526 730.576355,1214.560181 725.932861,1212.438965 
	C740.375732,1207.401001 753.411316,1202.770508 766.503479,1198.306152 
	C786.837952,1191.371948 807.242004,1184.640869 827.559570,1177.657715 
	C849.769653,1170.024048 871.885071,1162.114746 894.096863,1154.485962 
	C915.502869,1147.134033 936.996521,1140.037720 958.419067,1132.733398 
	C975.628235,1126.865723 992.758057,1120.763184 1010.004822,1115.009766 
	C1012.510071,1114.174072 1015.724548,1113.928589 1018.182068,1114.728149 
	C1038.601318,1121.371338 1058.947266,1128.243896 1079.261841,1135.203491 
	C1105.228149,1144.099487 1131.137695,1153.161255 1157.087036,1162.107178 
	C1164.311035,1164.597656 1164.579102,1164.435669 1166.991943,1157.475952 
	C1173.535156,1138.600952 1180.181763,1119.760376 1186.533569,1100.821045 
	C1191.097290,1087.213379 1195.294800,1073.481934 1199.560547,1059.776001 
	C1200.596924,1056.446289 1201.259155,1053.000000 1202.271484,1048.883057 
	C1199.840210,1049.450195 1198.549805,1049.645020 1197.329834,1050.051270 
	C1169.441406,1059.339111 1141.566528,1068.668091 1113.676758,1077.951904 
	C1084.373047,1087.706665 1054.997559,1097.250854 1025.786133,1107.273926 
	C1018.334900,1109.830566 1011.890076,1110.493652 1004.098145,1107.428833 
	C987.205811,1100.784668 969.727783,1095.635864 952.520020,1089.785400 
	C938.428833,1084.994385 924.394958,1080.034912 910.311646,1075.220459 
	C897.019958,1070.676758 883.684021,1066.262451 870.391174,1061.722168 
	C856.306274,1056.911133 842.259644,1051.987915 828.177002,1047.170044 
	C813.791138,1042.248413 799.392029,1037.365234 784.980042,1032.520996 
	C772.290527,1028.255859 759.556030,1024.123535 746.878723,1019.822754 
	C740.165222,1017.545105 733.531128,1015.033508 725.708069,1012.211548 
	C728.203308,1011.195374 729.226746,1010.684509 730.305298,1010.353149 
	C752.573120,1003.512939 774.872559,996.774597 797.113525,989.848389 
	C825.201355,981.101501 853.222351,972.139771 881.310608,963.394470 
	C901.359070,957.152344 921.492798,951.184265 941.549500,944.968262 
	C968.691101,936.556519 995.778137,927.968750 1022.923889,919.570679 
	C1034.183960,916.087097 1044.730225,912.403442 1057.406738,917.492981 
	C1076.671631,925.227722 1097.036499,930.209961 1116.900269,936.468872 
	C1144.321899,945.109253 1171.709106,953.858032 1199.117310,962.541260 
	C1205.826294,964.666809 1212.558594,966.718201 1219.691284,968.931274 
	C1228.540894,929.664734 1237.511230,890.952087 1244.755127,850.417114 
	C1230.297729,854.948486 1217.738403,858.999390 1205.109131,862.819641 
	C1178.387817,870.902466 1151.636230,878.885803 1124.885254,886.870300 
	C1103.035889,893.391785 1081.239258,900.106506 1059.273193,906.210144 
	C1051.528442,908.362183 1044.400879,912.032959 1035.072144,908.548950 
	C1015.128845,901.100952 994.389526,895.795959 974.015564,889.486084 
	C955.876038,883.868225 937.812012,878.006897 919.675110,872.380310 
	C878.315796,859.549500 836.936035,846.784729 795.556824,834.018311 
	C778.809082,828.851135 762.031555,823.780396 745.287292,818.601807 
	C739.140869,816.700928 733.051575,814.615356 725.974731,812.299377 
	C727.618286,811.487976 728.021301,811.205872 728.468262,811.080261 
	C753.595459,804.019043 778.744446,797.034607 803.851990,789.903992 
	C830.402466,782.363708 856.904114,774.651245 883.445190,767.077332 
	C909.186584,759.731506 934.961365,752.502441 960.702637,745.156128 
	C992.011780,736.220764 1023.302673,727.221558 1054.598145,718.238403 
	C1064.434448,715.415100 1073.704590,712.906433 1084.509644,716.656616 
	C1104.148682,723.472900 1124.463257,728.339294 1144.485229,734.056824 
	C1166.097412,740.228394 1187.689575,746.469299 1209.304932,752.629700 
	C1224.563232,756.978333 1239.852051,761.219543 1255.110962,765.566162 
	C1258.045288,766.401917 1259.780396,766.001648 1260.309692,762.510620 
	C1261.372437,755.498657 1262.955811,748.563293 1263.942383,741.542542 
	C1265.597046,729.765991 1266.822388,717.929077 1268.466187,706.150818 
	C1270.764771,689.680847 1273.281982,673.241333 1275.802979,656.128479 
	C1273.856689,656.315308 1272.241577,656.246033 1270.753418,656.647339 
	C1252.414673,661.591736 1234.082031,666.559265 1215.772705,671.611328 
	C1191.723755,678.247009 1167.706787,684.999451 1143.657471,691.634216 
	C1120.881470,697.917908 1098.104370,704.200500 1075.259644,710.225952 
	C1072.782227,710.879456 1069.740723,710.227539 1067.153076,709.498962 
	C1046.790894,703.764771 1026.497192,697.787292 1006.138550,692.039856 
	C989.935791,687.465698 973.644287,683.205933 957.441101,678.633484 
	C935.500183,672.441833 913.606873,666.081665 891.691528,659.799072 
	C870.562195,653.741882 849.428589,647.699280 828.301086,641.635742 
	C803.202271,634.432617 778.110657,627.204407 753.010193,620.007141 
	C744.361145,617.526978 735.694763,615.106934 727.036316,612.659485 
	C727.038330,612.309082 727.040283,611.958679 727.042297,611.608276 
	C808.355225,586.195801 889.668091,560.783264 970.981018,535.370789 
	C970.995667,534.843689 971.010376,534.316650 971.025085,533.789551 
	C965.707397,531.899780 960.437866,529.858643 955.063843,528.145691 
	C927.986572,519.514771 901.049744,510.385223 873.744141,502.543030 
	C840.263428,492.927277 806.571472,483.987793 772.754639,475.630615 
	C759.027283,472.238220 744.773804,469.833008 730.680969,469.368378 
	C715.199951,468.857941 699.345520,469.604980 684.158447,472.474670 
	C657.749573,477.464752 631.390198,483.357513 605.619995,490.943787 
	C561.725342,503.865570 518.300415,518.384094 474.698090,532.294250 
	C473.653564,532.627441 472.843872,533.696777 470.931183,535.207397 
	C553.101501,560.882446 634.057861,586.178223 715.014221,611.473938 
	C713.455750,613.132629 711.882141,613.864075 710.233704,614.332520 
	C690.683594,619.888245 671.131104,625.436218 651.561890,630.924316 
	C621.017395,639.490356 590.443054,647.950378 559.911621,656.562439 
	C523.646606,666.791687 487.414429,677.137329 451.166473,687.427063 
	C431.135193,693.113342 411.100800,698.788574 390.336029,704.825500 
M314.371460,729.961548 
	C331.648682,725.068726 348.925903,720.175964 366.203125,715.283203 
	C366.180725,714.640625 366.158325,713.998047 366.135925,713.355408 
	C299.378571,694.107239 232.621246,674.859131 164.471512,655.209473 
	C169.815414,693.127869 174.917404,729.329590 180.215012,766.919373 
	C225.244202,754.466736 269.400452,742.255554 314.371460,729.961548 
M464.658447,1477.874634 
	C451.680511,1472.575439 438.702606,1467.276367 425.724670,1461.977173 
	C425.449493,1462.408813 425.174316,1462.840454 424.899139,1463.272095 
	C441.457886,1489.399658 458.016663,1515.527344 474.786896,1541.988647 
	C496.603760,1531.427124 518.425903,1520.863037 540.248047,1510.298950 
	C540.117554,1509.817871 539.987000,1509.336670 539.856506,1508.855591 
	C515.032471,1498.612061 490.208466,1488.368652 464.658447,1477.874634 
z"/>
<path fill="#292524" opacity="1.000000" stroke="none" 
	d="
M390.701935,704.647217 
	C411.100800,698.788574 431.135193,693.113342 451.166473,687.427063 
	C487.414429,677.137329 523.646606,666.791687 559.911621,656.562439 
	C590.443054,647.950378 621.017395,639.490356 651.561890,630.924316 
	C671.131104,625.436218 690.683594,619.888245 710.233704,614.332520 
	C711.882141,613.864075 713.455750,613.132629 715.014221,611.473938 
	C634.057861,586.178223 553.101501,560.882446 470.931183,535.207397 
	C472.843872,533.696777 473.653564,532.627441 474.698090,532.294250 
	C518.300415,518.384094 561.725342,503.865570 605.619995,490.943787 
	C631.390198,483.357513 657.749573,477.464752 684.158447,472.474670 
	C699.345520,469.604980 715.199951,468.857941 730.680969,469.368378 
	C744.773804,469.833008 759.027283,472.238220 772.754639,475.630615 
	C806.571472,483.987793 840.263428,492.927277 873.744141,502.543030 
	C901.049744,510.385223 927.986572,519.514771 955.063843,528.145691 
	C960.437866,529.858643 965.707397,531.899780 971.025085,533.789551 
	C971.010376,534.316650 970.995667,534.843689 970.981018,535.370789 
	C889.668091,560.783264 808.355225,586.195801 727.042297,611.608276 
	C727.040283,611.958679 727.038330,612.309082 727.036316,612.659485 
	C735.694763,615.106934 744.361145,617.526978 753.010193,620.007141 
	C778.110657,627.204407 803.202271,634.432617 828.301086,641.635742 
	C849.428589,647.699280 870.562195,653.741882 891.691528,659.799072 
	C913.606873,666.081665 935.500183,672.441833 957.441101,678.633484 
	C973.644287,683.205933 989.935791,687.465698 1006.138550,692.039856 
	C1026.497192,697.787292 1046.790894,703.764771 1067.153076,709.498962 
	C1069.740723,710.227539 1072.782227,710.879456 1075.259644,710.225952 
	C1098.104370,704.200500 1120.881470,697.917908 1143.657471,691.634216 
	C1167.706787,684.999451 1191.723755,678.247009 1215.772705,671.611328 
	C1234.082031,666.559265 1252.414673,661.591736 1270.753418,656.647339 
	C1272.241577,656.246033 1273.856689,656.315308 1275.802979,656.128479 
	C1273.281982,673.241333 1270.764771,689.680847 1268.466187,706.150818 
	C1266.822388,717.929077 1265.597046,729.765991 1263.942383,741.542542 
	C1262.955811,748.563293 1261.372437,755.498657 1260.309692,762.510620 
	C1259.780396,766.001648 1258.045288,766.401917 1255.110962,765.566162 
	C1239.852051,761.219543 1224.563232,756.978333 1209.304932,752.629700 
	C1187.689575,746.469299 1166.097412,740.228394 1144.485229,734.056824 
	C1124.463257,728.339294 1104.148682,723.472900 1084.509644,716.656616 
	C1073.704590,712.906433 1064.434448,715.415100 1054.598145,718.238403 
	C1023.302673,727.221558 992.011780,736.220764 960.702637,745.156128 
	C934.961365,752.502441 909.186584,759.731506 883.445190,767.077332 
	C856.904114,774.651245 830.402466,782.363708 803.851990,789.903992 
	C778.744446,797.034607 753.595459,804.019043 728.468262,811.080261 
	C728.021301,811.205872 727.618286,811.487976 725.974731,812.299377 
	C733.051575,814.615356 739.140869,816.700928 745.287292,818.601807 
	C762.031555,823.780396 778.809082,828.851135 795.556824,834.018311 
	C836.936035,846.784729 878.315796,859.549500 919.675110,872.380310 
	C937.812012,878.006897 955.876038,883.868225 974.015564,889.486084 
	C994.389526,895.795959 1015.128845,901.100952 1035.072144,908.548950 
	C1044.400879,912.032959 1051.528442,908.362183 1059.273193,906.210144 
	C1081.239258,900.106506 1103.035889,893.391785 1124.885254,886.870300 
	C1151.636230,878.885803 1178.387817,870.902466 1205.109131,862.819641 
	C1217.738403,858.999390 1230.297729,854.948486 1244.755127,850.417114 
	C1237.511230,890.952087 1228.540894,929.664734 1219.691284,968.931274 
	C1212.558594,966.718201 1205.826294,964.666809 1199.117310,962.541260 
	C1171.709106,953.858032 1144.321899,945.109253 1116.900269,936.468872 
	C1097.036499,930.209961 1076.671631,925.227722 1057.406738,917.492981 
	C1044.730225,912.403442 1034.183960,916.087097 1022.923889,919.570679 
	C995.778137,927.968750 968.691101,936.556519 941.549500,944.968262 
	C921.492798,951.184265 901.359070,957.152344 881.310608,963.394470 
	C853.222351,972.139771 825.201355,981.101501 797.113525,989.848389 
	C774.872559,996.774597 752.573120,1003.512939 730.305298,1010.353149 
	C729.226746,1010.684509 728.203308,1011.195374 725.708069,1012.211548 
	C733.531128,1015.033508 740.165222,1017.545105 746.878723,1019.822754 
	C759.556030,1024.123535 772.290527,1028.255859 784.980042,1032.520996 
	C799.392029,1037.365234 813.791138,1042.248413 828.177002,1047.170044 
	C842.259644,1051.987915 856.306274,1056.911133 870.391174,1061.722168 
	C883.684021,1066.262451 897.019958,1070.676758 910.311646,1075.220459 
	C924.394958,1080.034912 938.428833,1084.994385 952.520020,1089.785400 
	C969.727783,1095.635864 987.205811,1100.784668 1004.098145,1107.428833 
	C1011.890076,1110.493652 1018.334900,1109.830566 1025.786133,1107.273926 
	C1054.997559,1097.250854 1084.373047,1087.706665 1113.676758,1077.951904 
	C1141.566528,1068.668091 1169.441406,1059.339111 1197.329834,1050.051270 
	C1198.549805,1049.645020 1199.840210,1049.450195 1202.271484,1048.883057 
	C1201.259155,1053.000000 1200.596924,1056.446289 1199.560547,1059.776001 
	C1195.294800,1073.481934 1191.097290,1087.213379 1186.533569,1100.821045 
	C1180.181763,1119.760376 1173.535156,1138.600952 1166.991943,1157.475952 
	C1164.579102,1164.435669 1164.311035,1164.597656 1157.087036,1162.107178 
	C1131.137695,1153.161255 1105.228149,1144.099487 1079.261841,1135.203491 
	C1058.947266,1128.243896 1038.601318,1121.371338 1018.182068,1114.728149 
	C1015.724548,1113.928589 1012.510071,1114.174072 1010.004822,1115.009766 
	C992.758057,1120.763184 975.628235,1126.865723 958.419067,1132.733398 
	C936.996521,1140.037720 915.502869,1147.134033 894.096863,1154.485962 
	C871.885071,1162.114746 849.769653,1170.024048 827.559570,1177.657715 
	C807.242004,1184.640869 786.837952,1191.371948 766.503479,1198.306152 
	C753.411316,1202.770508 740.375732,1207.401001 725.932861,1212.438965 
	C730.576355,1214.560181 734.021545,1216.264526 737.564758,1217.732300 
	C770.270142,1231.280518 802.970947,1244.840088 835.716431,1258.290771 
	C864.172424,1269.979248 892.699463,1281.494629 921.165100,1293.159912 
	C933.563660,1298.240723 945.928345,1303.410156 958.210693,1308.763794 
	C960.716980,1309.856201 962.155273,1309.355103 964.569519,1308.219238 
	C973.987915,1303.788452 983.711304,1300.001099 993.350403,1296.045288 
	C1014.621704,1287.315918 1035.923096,1278.659546 1057.188843,1269.916504 
	C1075.700806,1262.305664 1094.178223,1254.610596 1112.676025,1246.965454 
	C1118.434204,1244.585449 1124.209473,1242.246460 1131.123047,1240.697144 
	C1129.978760,1243.985352 1129.058105,1247.372437 1127.653809,1250.545654 
	C1119.085571,1269.906128 1110.603882,1289.308960 1101.702881,1308.516724 
	C1094.738281,1323.545410 1087.126465,1338.273193 1079.987793,1353.223267 
	C1078.217773,1356.930176 1076.235596,1357.439941 1072.530151,1355.893066 
	C1040.012939,1342.318604 1007.429321,1328.902954 974.856750,1315.461304 
	C972.261597,1314.390259 969.631226,1313.381836 966.955505,1312.540771 
	C966.017639,1312.245850 964.772461,1312.243286 963.874084,1312.611084 
	C950.585999,1318.052368 937.358582,1323.641968 924.065247,1329.070190 
	C904.466125,1337.072998 884.831543,1344.989014 865.201843,1352.916748 
	C847.870056,1359.916260 830.520325,1366.871460 813.185547,1373.863647 
	C794.319763,1381.473511 775.464539,1389.109375 756.599731,1396.721436 
	C747.244568,1400.496216 737.875977,1404.237549 728.520325,1408.011108 
	C727.464783,1408.436768 726.453918,1408.973022 724.455627,1409.912720 
	C730.146729,1413.213623 735.134949,1416.251831 740.253845,1419.051025 
	C763.072449,1431.528198 785.969177,1443.862915 808.760681,1456.389160 
	C836.899414,1471.854004 865.155518,1487.122925 892.941101,1503.202148 
	C901.405090,1508.100220 908.157166,1507.018555 916.467224,1503.425293 
	C942.578491,1492.134888 969.025574,1481.621216 995.336609,1470.792114 
	C1001.608887,1468.210571 1007.850037,1465.553223 1014.125610,1462.979614 
	C1015.108521,1462.576538 1016.199097,1462.436157 1017.239868,1462.174194 
	C1017.675110,1462.562622 1018.110413,1462.951050 1018.545715,1463.339478 
	C1001.790466,1489.362427 985.035217,1515.385376 967.983948,1541.868042 
	C961.497620,1538.832397 954.786926,1535.774292 948.147949,1532.567871 
	C933.997803,1525.733643 919.907593,1518.774780 905.715088,1512.030640 
	C904.524658,1511.464844 902.487305,1511.645630 901.283997,1512.295410 
	C877.687256,1525.038208 854.130127,1537.854858 830.617676,1550.752808 
	C800.851074,1567.081665 771.132629,1583.498169 741.391052,1599.872437 
	C736.483887,1602.574097 731.564331,1605.252930 725.578125,1608.529419 
	C768.578613,1632.616699 810.840088,1656.290039 853.819885,1680.365723 
	C848.196045,1686.822998 843.412537,1692.698486 838.227417,1698.195190 
	C823.824646,1713.463745 809.518799,1728.838989 794.677490,1743.674683 
	C779.514282,1758.832275 763.813416,1773.454956 748.237000,1788.194580 
	C742.946350,1793.200928 737.330078,1797.864258 731.841614,1802.660278 
	C724.410217,1809.153687 717.712036,1809.246948 710.223633,1802.656006 
	C700.268066,1793.893921 690.260437,1785.174561 680.637878,1776.054199 
	C662.050232,1758.436768 643.439270,1740.827759 625.371338,1722.684082 
	C612.497314,1709.756104 600.492920,1695.962036 588.117188,1682.538940 
	C587.695190,1682.081421 587.454346,1681.456787 586.703308,1680.194702 
	C629.926086,1656.410767 672.932556,1632.745850 716.718628,1608.651855 
	C707.847290,1603.573120 699.777283,1598.859741 691.620728,1594.301270 
	C668.204895,1581.214966 644.780457,1568.143921 621.309143,1555.157471 
	C601.167114,1544.013184 580.947937,1533.008179 560.780334,1521.909912 
	C554.976501,1518.716064 549.260193,1515.362915 543.451172,1512.178711 
	C540.451172,1510.534058 540.240845,1509.046021 543.329529,1507.322388 
	C560.245056,1497.881714 577.149414,1488.421265 594.065369,1478.981323 
	C617.200073,1466.071167 640.317932,1453.130371 663.489563,1440.286621 
	C677.685486,1432.418213 691.976013,1424.720703 706.207214,1416.915771 
	C709.927795,1414.875366 713.585022,1412.719482 718.404053,1409.970459 
	C710.519714,1406.712402 703.727051,1403.862183 696.901489,1401.092773 
	C672.684387,1391.266602 648.464417,1381.447388 624.229858,1371.664307 
	C599.689209,1361.757446 575.141846,1351.867188 550.575562,1342.024292 
	C527.091858,1332.615234 503.509827,1323.444946 480.163177,1313.708862 
	C476.982330,1312.382446 475.039337,1312.596802 472.226501,1313.768188 
	C443.670868,1325.659180 415.066193,1337.432495 386.456207,1349.192627 
	C379.597382,1352.011963 372.668182,1354.660034 365.188904,1357.617188 
	C344.982941,1319.598755 327.303040,1280.777588 311.442169,1241.128418 
	C311.926666,1240.714355 312.411194,1240.300171 312.895691,1239.886108 
	C317.837372,1241.939453 322.778168,1243.994995 327.720917,1246.045776 
	C359.809113,1259.359863 391.893311,1272.683716 423.988007,1285.982056 
	C442.740387,1293.752197 461.501862,1301.500610 480.296692,1309.167114 
	C481.165558,1309.521484 482.498016,1309.204224 483.454620,1308.810791 
	C502.728699,1300.884521 521.966492,1292.869995 541.238159,1284.937744 
	C562.345154,1276.250366 583.493469,1267.663086 604.597595,1258.968628 
	C628.765503,1249.011963 652.895081,1238.962158 677.060730,1229.000000 
	C688.528198,1224.272583 700.047241,1219.670410 711.527222,1214.973145 
	C713.615540,1214.118774 715.628113,1213.079224 718.830200,1211.587158 
	C700.578796,1205.428589 683.557068,1199.718506 666.559021,1193.938843 
	C652.938721,1189.307495 639.356445,1184.564087 625.740112,1179.920898 
	C612.914307,1175.547363 600.055847,1171.269653 587.230408,1166.895386 
	C572.987793,1162.037964 558.776611,1157.088135 544.532593,1152.234863 
	C531.245667,1147.707520 517.918213,1143.298950 504.636688,1138.756226 
	C490.397156,1133.885742 476.196747,1128.901001 461.967102,1124.001465 
	C452.598846,1120.775879 443.268433,1117.416504 433.789062,1114.554077 
	C431.285065,1113.797852 428.074951,1114.022705 425.556549,1114.878418 
	C396.130646,1124.878906 366.794891,1135.144165 337.393463,1145.217407 
	C319.260651,1151.429810 301.056946,1157.435547 282.879272,1163.516846 
	C282.277222,1163.718018 281.611542,1163.729248 280.470123,1163.908447 
	C265.373627,1126.000122 254.512985,1086.816650 242.547562,1047.988525 
	C242.993835,1047.598999 243.440109,1047.209595 243.886383,1046.820068 
	C250.060837,1048.875244 256.252472,1050.880371 262.406555,1052.994995 
	C281.323212,1059.495117 300.237091,1066.003662 319.130707,1072.570435 
	C347.859589,1082.555420 376.563568,1092.611694 405.293884,1102.592529 
	C412.622711,1105.138550 419.971741,1107.644165 427.399414,1109.875732 
	C429.258087,1110.434082 431.620239,1110.346680 433.474976,1109.728271 
	C451.184265,1103.823730 468.848022,1097.781616 486.496826,1091.697632 
	C500.556549,1086.850952 514.561462,1081.845215 528.619324,1076.993164 
	C545.965149,1071.006348 563.351257,1065.135864 580.700806,1059.159546 
	C605.869751,1050.489868 631.009216,1041.734375 656.184998,1033.084473 
	C674.779907,1026.695679 693.414368,1020.421631 712.025696,1014.080383 
	C713.370544,1013.622192 714.670898,1013.033386 717.176086,1012.031982 
	C704.569214,1008.126221 693.133118,1004.596497 681.705139,1001.040344 
	C636.090088,986.845581 590.481506,972.629517 544.862427,958.447510 
	C516.458008,949.617188 488.029724,940.863403 459.629822,932.018555 
	C441.794830,926.464111 424.079987,920.496216 406.115601,915.403992 
	C401.478119,914.089478 395.777679,914.271484 391.118378,915.643372 
	C353.690948,926.664185 316.408752,938.176941 279.055084,949.449646 
	C261.172729,954.846191 243.220581,960.011169 225.328201,965.374939 
	C222.318802,966.277039 220.486511,966.377014 219.658997,962.515564 
	C214.539764,938.627014 209.162964,914.793823 203.972961,890.920166 
	C201.377838,878.982910 198.971741,867.004211 196.547058,855.030701 
	C196.197556,853.304871 196.224503,851.502869 196.006821,848.891663 
	C199.952789,849.960510 203.230911,850.745056 206.445709,851.735168 
	C243.901337,863.271545 281.342682,874.854370 318.797638,886.392822 
	C344.555817,894.327942 370.320160,902.243530 396.116760,910.052124 
	C397.861389,910.580139 400.045654,910.604797 401.781494,910.070618 
	C428.623810,901.810303 455.410126,893.368103 482.242279,885.074280 
	C502.303650,878.873230 522.436523,872.903198 542.493103,866.687012 
	C565.044128,859.697632 587.524292,852.479614 610.074341,845.487183 
	C630.446106,839.170166 650.892578,833.093933 671.264404,826.777405 
	C686.054504,822.191528 700.776611,817.386719 715.646667,811.739441 
	C599.562561,778.898560 483.478485,746.057678 366.153625,712.865845 
	C374.143890,707.804810 382.806458,707.882324 390.701935,704.647217 
z"/>
<path fill="#292524" opacity="1.000000" stroke="none" 
	d="
M313.964081,730.002930 
	C269.400452,742.255554 225.244202,754.466736 180.215012,766.919373 
	C174.917404,729.329590 169.815414,693.127869 164.471512,655.209473 
	C232.621246,674.859131 299.378571,694.107239 366.135925,713.355408 
	C366.158325,713.998047 366.180725,714.640625 366.203125,715.283203 
	C348.925903,720.175964 331.648682,725.068726 313.964081,730.002930 
z"/>
<path fill="#0A0A0A" opacity="1.000000" stroke="none" 
	d="
M465.021423,1478.000000 
	C490.208466,1488.368652 515.032471,1498.612061 539.856506,1508.855591 
	C539.987000,1509.336670 540.117554,1509.817871 540.248047,1510.298950 
	C518.425903,1520.863037 496.603760,1531.427124 474.786896,1541.988647 
	C458.016663,1515.527344 441.457886,1489.399658 424.899139,1463.272095 
	C425.174316,1462.840454 425.449493,1462.408813 425.724670,1461.977173 
	C438.702606,1467.276367 451.680511,1472.575439 465.021423,1478.000000 
z"/>
</svg>